<svg xmlns="http://www.w3.org/2000/svg" width="360" height="420" viewBox="0 0 360 420">
  <path d="M80 390c8-70 45-120 100-120s92 50 100 120"
        fill="#ffffff" stroke="#c75a1d" stroke-width="6" stroke-linecap="round"/>
  <path d="M110 300c18-18 44-30 70-30s52 12 70 30"
        fill="#ffffff" stroke="#c75a1d" stroke-width="6" stroke-linecap="round"/>
  <path d="M120 390c6-62 32-102 60-110v110"
        fill="#f5f0e6" stroke="#c75a1d" stroke-width="6" stroke-linejoin="round"/>
  <path d="M180 280v110c28 8 54 48 60 110"
        fill="#e46a2e" stroke="#c75a1d" stroke-width="6" stroke-linejoin="round"/>
  <path d="M180 280c-12 10-20 18-28 34h56c-8-16-16-24-28-34z"
        fill="#ffffff" stroke="#c75a1d" stroke-width="6" stroke-linejoin="round"/>
  <circle cx="180" cy="332" r="5" fill="#c75a1d"/>
  <circle cx="180" cy="362" r="5" fill="#c75a1d"/>
  <circle cx="180" cy="392" r="5" fill="#c75a1d"/>
</svg>